HIERARCHY
ROOT Hips
{
    OFFSET 0.000000 0.000000 0.000000
    CHANNELS 6 Xposition Yposition Zposition Zrotation Xrotation Yrotation
    JOINT Spine
    {
        OFFSET -0.000000 7.236184 0.000000
        CHANNELS 3 Zrotation Xrotation Yrotation
        JOINT Spine1
        {
            OFFSET -0.000000 20.420147 0.000000
            CHANNELS 3 Zrotation Xrotation Yrotation
            JOINT Neck
            {
                OFFSET -0.000000 20.336288 1.848754
                CHANNELS 3 Zrotation Xrotation Yrotation
                JOINT Head
                {
                    OFFSET -0.000000 12.354461 -1.764923
                    CHANNELS 3 Zrotation Xrotation Yrotation
                    End Site
                    {
                        OFFSET -0.000000 22.061537 0.000000
                    }
                }
            }
            JOINT LeftShoulder
            {
                OFFSET 3.573296 18.396038 -0.314103
                CHANNELS 3 Zrotation Xrotation Yrotation
                JOINT LeftArm
                {
                    OFFSET 10.880760 0.000000 0.000000
                    CHANNELS 3 Zrotation Xrotation Yrotation
                    JOINT LeftForeArm
                    {
                        OFFSET 27.185530 0.000000 0.000000
                        CHANNELS 3 Zrotation Xrotation Yrotation
                        JOINT LeftHand
                        {
                            OFFSET 27.825975 0.000000 0.000000
                            CHANNELS 3 Zrotation Xrotation Yrotation
                            End Site
                            {
                                OFFSET 13.236923 0.000000 0.000000
                            }
                        }
                    }
                }
            }
            JOINT RightShoulder
            {
                OFFSET -3.474926 18.396038 -0.314103
                CHANNELS 3 Zrotation Xrotation Yrotation
                JOINT RightArm
                {
                    OFFSET -10.880760 0.000000 0.000000
                    CHANNELS 3 Zrotation Xrotation Yrotation
                    JOINT RightForeArm
                    {
                        OFFSET -27.185530 0.000000 0.000000
                        CHANNELS 3 Zrotation Xrotation Yrotation
                        JOINT RightHand
                        {
                            OFFSET -27.825975 0.000000 0.000000
                            CHANNELS 3 Zrotation Xrotation Yrotation
                            End Site
                            {
                                OFFSET -13.236923 0.000000 0.000000
                            }
                        }
                    }
                }
            }
        }
    }
    JOINT LeftUpLeg
    {
        OFFSET 8.824615 0.000000 0.000000
        CHANNELS 3 Zrotation Xrotation Yrotation
        JOINT LeftLeg
        {
            OFFSET -0.000000 -35.111282 0.000000
            CHANNELS 3 Zrotation Xrotation Yrotation
            JOINT LeftFoot
            {
                OFFSET -0.000000 -42.324711 0.000000
                CHANNELS 3 Zrotation Xrotation Yrotation
                JOINT LeftToeBase
                {
                    OFFSET -0.000000 -5.735999 13.236923
                    CHANNELS 3 Zrotation Xrotation Yrotation
                    End Site
                    {
                        OFFSET -0.000000 0.000000 3.529846
                    }
                }
            }
        }
    }
    JOINT RightUpLeg
    {
        OFFSET -8.824615 0.000000 0.000000
        CHANNELS 3 Zrotation Xrotation Yrotation
        JOINT RightLeg
        {
            OFFSET -0.000000 -35.111282 0.000000
            CHANNELS 3 Zrotation Xrotation Yrotation
            JOINT RightFoot
            {
                OFFSET -0.000000 -42.324711 0.000000
                CHANNELS 3 Zrotation Xrotation Yrotation
                JOINT RightToeBase
                {
                    OFFSET -0.000000 -5.735999 13.236923
                    CHANNELS 3 Zrotation Xrotation Yrotation
                    End Site
                    {
                        OFFSET -0.000000 0.000000 3.529846
                    }
                }
            }
        }
    }
}
MOTION
Frames:    10
Frame Time:    0.008333
-2.098967    82.476273    110.528275    1.285637    -4.157143    -164.657867    -3.454207    -12.684509    -1.244208    1.020140    8.594977    -0.936904    -0.738152    11.530748    -6.582694    14.347251    -6.955966    -3.918381    6.348791    9.774750    -14.118405    -38.239693    25.263027    -66.818161    5.575712    -32.256512    -121.136971    29.152979    -20.989485    10.424788    -1.259869    8.971010    7.385103    46.450367    4.321604    55.494755    -4.274213    -33.634186    124.214539    -19.390039    -25.338663    -8.478935    10.946458    -16.083620    5.675006    -1.316999    22.727915    16.490961    -9.904635    -6.085718    -12.886639    -0.130497    0.333935    0.144565    -10.428041    -3.140167    -1.432908    9.916890    16.262442    -10.313835    0.000000    0.000000    0.000000    0.000000    0.000000    0.000000    
-2.151797    82.481720    110.523270    1.257155    -4.214725    -164.900909    -3.440917    -12.713034    -1.251124    0.986618    8.552275    -0.941504    -0.712672    11.568465    -6.537842    14.263430    -6.884681    -3.898660    6.399207    9.693107    -14.187334    -38.346592    25.053047    -66.790665    5.567678    -32.311893    -121.128365    29.173027    -21.059340    10.443457    -1.386694    8.765846    7.435444    46.459400    4.211726    55.559338    -4.265264    -33.656166    124.261322    -19.591255    -25.350670    -8.518531    10.911613    -16.044331    5.694186    -1.367263    22.718914    16.701653    -9.912000    -6.126755    -12.867648    -0.135799    0.320801    0.150442    -10.497353    -3.231396    -1.366222    9.878364    16.255562    -10.248051    0.000000    0.000000    0.000000    0.000000    0.000000    0.000000    
-2.189091    82.485672    110.519615    1.236637    -4.255655    -165.071716    -3.431257    -12.733432    -1.256110    0.961749    8.521962    -0.944767    -0.694336    11.595045    -6.505799    14.204463    -6.834653    -3.884212    6.434634    9.635091    -14.235931    -38.420933    24.905365    -66.770844    5.564613    -32.353107    -121.121704    29.189215    -21.106550    10.456569    -1.474988    8.622412    7.470720    46.465816    4.132677    55.606968    -4.259932    -33.672733    124.291718    -19.728750    -25.359343    -8.545842    10.886336    -16.017040    5.707699    -1.402526    22.712173    16.849998    -9.916519    -6.155798    -12.854658    -0.139608    0.312055    0.154664    -10.546947    -3.296075    -1.319846    9.852167    16.250832    -10.200416    0.000000    0.000000    0.000000    0.000000    0.000000    0.000000    
-2.225888    82.489647    110.515770    1.216017    -4.296294    -165.239365    -3.421152    -12.753428    -1.261122    0.935408    8.491578    -0.948151    -0.675504    11.621014    -6.473586    14.146397    -6.785601    -3.869229    6.469557    9.576836    -14.283643    -38.494473    24.760853    -66.750801    5.564966    -32.395889    -121.114769    29.207924    -21.149563    10.469696    -1.560720    8.483059    7.505209    46.471508    4.053112    55.656910    -4.255764    -33.690170    124.319725    -19.858538    -25.367893    -8.572132    10.860688    -15.990442    5.721292    -1.436791    22.705135    16.995781    -9.920259    -6.184669    -12.842556    -0.143568    0.303865    0.159054    -10.596512    -3.360036    -1.274946    9.827222    16.246437    -10.151929    0.000000    0.000000    0.000000    0.000000    0.000000    0.000000    
-2.262285    82.493568    110.511566    1.195458    -4.336418    -165.404648    -3.410230    -12.772870    -1.266371    0.907306    8.461139    -0.951741    -0.655677    11.646373    -6.440806    14.088323    -6.737509    -3.853540    6.504496    9.517487    -14.330857    -38.569412    24.619120    -66.729805    5.569141    -32.440056    -121.108231    29.229296    -21.187389    10.483227    -1.644110    8.347948    7.539114    46.475922    3.972077    55.710480    -4.252758    -33.708519    124.345619    -19.979946    -25.376661    -8.597398    10.835180    -15.964037    5.735396    -1.470479    22.698025    17.139460    -9.923134    -6.213852    -12.831480    -0.147720    0.296466    0.163655    -10.645885    -3.423010    -1.230681    9.803659    16.242155    -10.102059    0.000000    0.000000    0.000000    0.000000    0.000000    0.000000    
-2.298212    82.497276    110.506737    1.175273    -4.375195    -165.567856    -3.398244    -12.790933    -1.272070    0.877633    8.430761    -0.955815    -0.634715    11.670569    -6.407208    14.029745    -6.689888    -3.837025    6.539564    9.456565    -14.377654    -38.647121    24.480232    -66.707367    5.577265    -32.485451    -121.102669    29.252642    -21.219723    10.496616    -1.725011    8.217654    7.572596    46.478214    3.888991    55.768875    -4.250722    -33.727970    124.369911    -20.093004    -25.385859    -8.621428    10.810721    -15.937091    5.750808    -1.503745    22.691355    17.280397    -9.925265    -6.243753    -12.821405    -0.152213    0.289793    0.168635    -10.694311    -3.484077    -1.186419    9.781284    16.237762    -10.050563    0.000000    0.000000    0.000000    0.000000    0.000000    0.000000    
-2.333384    82.500557    110.501144    1.155928    -4.411655    -165.728439    -3.385212    -12.806566    -1.278463    0.847157    8.400493    -0.960670    -0.612294    11.693990    -6.372601    13.969721    -6.644128    -3.819515    6.574688    9.394317    -14.424227    -38.728371    24.344612    -66.683006    5.588896    -32.531830    -121.099182    29.275711    -21.246748    10.510365    -1.802849    8.093635    7.605870    46.477356    3.803524    55.833088    -4.249445    -33.748627    124.392937    -20.197388    -25.395857    -8.644623    10.788410    -15.909194    5.768031    -1.536732    22.685804    17.417425    -9.926744    -6.274523    -12.812261    -0.157010    0.283536    0.173952    -10.740639    -3.542296    -1.141853    9.759751    16.233376    -9.997747    0.000000    0.000000    0.000000    0.000000    0.000000    0.000000    
-2.367720    82.503281    110.494614    1.137746    -4.445151    -165.886642    -3.370960    -12.819186    -1.285642    0.816287    8.370586    -0.966639    -0.588257    11.715879    -6.336725    13.907243    -6.599852    -3.801006    6.609572    9.331452    -14.470452    -38.813362    24.211740    -66.656937    5.603551    -32.578777    -121.098549    29.296503    -21.269054    10.523967    -1.877391    7.976482    7.639079    46.472561    3.715693    55.903946    -4.248846    -33.770977    124.415230    -20.293732    -25.407114    -8.667873    10.769098    -15.879905    5.787745    -1.569591    22.682014    17.549726    -9.927834    -6.306398    -12.803576    -0.161884    0.277934    0.179353    -10.784195    -3.597074    -1.096048    9.738958    16.229004    -9.943747    0.000000    0.000000    0.000000    0.000000    0.000000    0.000000    
-2.401297    82.505348    110.487045    1.120853    -4.475499    -166.043167    -3.355620    -12.828627    -1.293806    0.785689    8.341288    -0.973791    -0.563012    11.736465    -6.299298    13.841925    -6.557567    -3.781208    6.643908    9.268906    -14.516708    -38.901943    24.080631    -66.629387    5.620980    -32.626663    -121.101379    29.313612    -21.287540    10.537760    -1.948963    7.866706    7.671989    46.463333    3.625284    55.983044    -4.248711    -33.795025    124.437363    -20.383434    -25.419821    -8.691641    10.753136    -15.849166    5.810206    -1.602518    22.680761    17.677433    -9.928783    -6.339612    -12.794972    -0.167022    0.272269    0.185048    -10.824628    -3.648683    -1.048609    9.718420    16.225296    -9.888513    0.000000    0.000000    0.000000    0.000000    0.000000    0.000000    
-2.434156    82.506691    110.478470    1.105233    -4.502887    -166.198334    -3.339358    -12.834979    -1.302988    0.755679    8.312726    -0.982240    -0.536561    11.755959    -6.260075    13.772994    -6.518031    -3.759923    6.677163    9.208694    -14.562995    -38.992538    23.950096    -66.601410    5.641201    -32.676128    -121.107841    29.327005    -21.302639    10.551647    -2.017441    7.764148    7.704892    46.449360    3.532964    56.070274    -4.248999    -33.821297    124.459854    -20.467239    -25.434366    -8.716724    10.740458    -15.817364    5.835470    -1.635467    22.682465    17.800884    -9.929846    -6.374037    -12.786396    -0.172348    0.266306    0.190951    -10.861985    -3.697919    -0.999462    9.697869    16.223211    -9.832035    0.000000    0.000000    0.000000    0.000000    0.000000    0.000000    
